<svg width="20" height="20" viewBox="0 0 20 20" fill="none" xmlns="http://www.w3.org/2000/svg">
<path d="M11.0221 0C12.8221 0 13.2021 0.0199999 14.1221 0.0599999C15.1821 0.11 15.9121 0.28 16.5421 0.53C17.2021 0.78 17.7621 1.13 18.3121 1.68C18.8721 2.23 19.2121 2.79 19.4721 3.45C19.7221 4.08 19.8821 4.81 19.9321 5.88C19.9821 6.83 19.9921 7.2 19.9921 9.2V10.8C19.9921 12.8 19.9821 13.17 19.9321 14.12C19.9164 14.9468 19.7609 15.7651 19.4721 16.54C19.2121 17.2 18.8721 17.76 18.3221 18.31C17.7621 18.87 17.2021 19.21 16.5421 19.47C15.9121 19.72 15.1821 19.88 14.1221 19.93C13.1721 19.98 12.7921 19.99 10.7921 19.99H9.20211C7.20211 19.99 6.83211 19.98 5.87211 19.93C5.04529 19.9141 4.2271 19.7586 3.45211 19.47C2.78571 19.2195 2.18176 18.8271 1.68211 18.32C1.16991 17.8186 0.773938 17.211 0.522106 16.54C0.233726 15.765 0.0782094 14.9468 0.0621064 14.12C0.0130835 13.0874 -0.00692433 12.0537 0.00210647 11.02V8.97C0.00210647 7.17 0.0221064 6.79 0.0621064 5.87C0.112106 4.81 0.282106 4.08 0.522106 3.45C0.782106 2.79 1.12211 2.23 1.68211 1.68C2.17728 1.16743 2.78255 0.774176 3.45211 0.53C4.22656 0.238206 5.04473 0.079305 5.87211 0.0599999C6.79211 0.0199999 7.17211 0 8.97211 0H11.0221ZM11.0421 1.8H8.95211C7.22211 1.8 6.85211 1.82 5.95211 1.86C4.98211 1.9 4.45211 2.06 4.10211 2.2C3.63211 2.38 3.30211 2.6 2.95211 2.95C2.60211 3.3 2.38211 3.63 2.20211 4.1C2.07211 4.45 1.90211 4.98 1.86211 5.96C1.82211 6.86 1.80211 7.22 1.80211 8.96V11.04C1.80211 12.78 1.82211 13.14 1.86211 14.04C1.90211 15.01 2.06211 15.54 2.20211 15.89C2.38211 16.36 2.60211 16.69 2.95211 17.04C3.30211 17.39 3.63211 17.61 4.10211 17.79C4.45211 17.93 4.98211 18.09 5.96211 18.13C6.93211 18.18 7.28211 18.19 9.44211 18.19H10.5521C12.7221 18.19 13.0621 18.18 14.0421 18.13C15.0121 18.09 15.5421 17.93 15.8921 17.79C16.3621 17.61 16.6921 17.39 17.0421 17.04C17.3921 16.69 17.6121 16.36 17.7921 15.89C17.9321 15.54 18.0921 15.01 18.1321 14.04C18.1821 13.06 18.1921 12.72 18.1921 10.55V9.45C18.1921 7.28 18.1821 6.93 18.1321 5.95C18.0921 4.98 17.9321 4.45 17.7921 4.1C17.6312 3.66543 17.3749 3.27246 17.0421 2.95C16.7199 2.61692 16.3268 2.3606 15.8921 2.2C15.299 1.98317 14.6735 1.86822 14.0421 1.86C13.0429 1.81227 12.0425 1.79226 11.0421 1.8ZM10.0021 4.86C11.364 4.86 12.6701 5.40101 13.6331 6.36401C14.5961 7.32701 15.1371 8.63311 15.1371 9.995C15.1371 11.3569 14.5961 12.663 13.6331 13.626C12.6701 14.589 11.364 15.13 10.0021 15.13C8.64022 15.13 7.33411 14.589 6.37111 13.626C5.40811 12.663 4.86711 11.3569 4.86711 9.995C4.86711 8.63311 5.40811 7.32701 6.37111 6.36401C7.33411 5.40101 8.64022 4.86 10.0021 4.86ZM10.0021 6.66C9.11761 6.66 8.26934 7.01136 7.64391 7.6368C7.01847 8.26223 6.66711 9.1105 6.66711 9.995C6.66711 10.8795 7.01847 11.7278 7.64391 12.3532C8.26934 12.9786 9.11761 13.33 10.0021 13.33C10.8866 13.33 11.7349 12.9786 12.3603 12.3532C12.9857 11.7278 13.3371 10.8795 13.3371 9.995C13.3371 9.1105 12.9857 8.26223 12.3603 7.6368C11.7349 7.01136 10.8866 6.66 10.0021 6.66ZM15.3321 3.46C15.6504 3.46 15.9556 3.58643 16.1806 3.81147C16.4057 4.03652 16.5321 4.34174 16.5321 4.66C16.5321 4.97826 16.4057 5.28348 16.1806 5.50853C15.9556 5.73357 15.6504 5.86 15.3321 5.86C15.0138 5.86 14.7086 5.73357 14.4836 5.50853C14.2585 5.28348 14.1321 4.97826 14.1321 4.66C14.1321 4.34174 14.2585 4.03652 14.4836 3.81147C14.7086 3.58643 15.0138 3.46 15.3321 3.46Z" fill="white"/>
</svg>
