<svg width="20" height="20" viewBox="0 0 20 20" fill="none" xmlns="http://www.w3.org/2000/svg">
<path d="M9.96458 0C7.64006 0.00823729 5.39103 0.826025 3.60412 2.31277C1.81721 3.79952 0.604075 5.86234 0.173261 8.1466C-0.257553 10.4309 0.120874 12.7939 1.24348 14.8293C2.36609 16.8648 4.16275 18.4456 6.32458 19.3C6.22458 18.51 6.15458 17.3 6.35458 16.43L7.52458 11.46C7.52458 11.46 7.22458 10.86 7.22458 9.98C7.22458 8.59 8.03458 7.56 9.04458 7.56C9.89458 7.56 10.3146 8.2 10.3146 8.96C10.3146 9.82 9.76458 11.1 9.47458 12.29C9.23458 13.29 9.97458 14.1 10.9646 14.1C12.7446 14.1 14.1046 12.23 14.1046 9.53C14.1046 7.13 12.3846 5.47 9.92458 5.47C9.34017 5.44433 8.75662 5.53734 8.20916 5.74342C7.66169 5.94951 7.16165 6.26438 6.73923 6.66904C6.31681 7.07371 5.98076 7.55977 5.75138 8.09789C5.52199 8.63601 5.40402 9.21503 5.40458 9.8C5.40458 10.66 5.73458 11.58 6.14458 12.08C6.22458 12.18 6.23458 12.27 6.20458 12.37L5.92458 13.5C5.88458 13.68 5.77458 13.73 5.59458 13.64C4.33458 13.05 3.55458 11.24 3.55458 9.76C3.55458 6.61 5.85458 3.72 10.1746 3.72C13.6346 3.72 16.3446 6.18 16.3446 9.49C16.3446 12.94 14.1646 15.71 11.1446 15.71C10.1446 15.71 9.18458 15.18 8.86458 14.56L8.23458 16.93C7.93945 17.8577 7.52247 18.7421 6.99458 19.56C8.36841 19.9816 9.81696 20.1021 11.2416 19.9133C12.6662 19.7245 14.0333 19.2309 15.25 18.4661C16.4666 17.7014 17.5041 16.6833 18.2918 15.4814C19.0796 14.2795 19.599 12.9219 19.8147 11.5011C20.0304 10.0804 19.9374 8.62979 19.542 7.24822C19.1465 5.86664 18.458 4.58652 17.5232 3.49506C16.5884 2.40359 15.4294 1.52642 14.125 0.923296C12.8207 0.320168 11.4016 0.00525257 9.96458 0Z" fill="white"/>
</svg>
